<?xml version="1.0" encoding="UTF-8" standalone="no"?>
<!-- Created with Inkscape (http://www.inkscape.org/) -->

<svg
   xmlns:dc="http://purl.org/dc/elements/1.1/"
   xmlns:cc="http://creativecommons.org/ns#"
   xmlns:rdf="http://www.w3.org/1999/02/22-rdf-syntax-ns#"
   xmlns:svg="http://www.w3.org/2000/svg"
   xmlns="http://www.w3.org/2000/svg"
   xmlns:xlink="http://www.w3.org/1999/xlink"
   xmlns:sodipodi="http://sodipodi.sourceforge.net/DTD/sodipodi-0.dtd"
   xmlns:inkscape="http://www.inkscape.org/namespaces/inkscape"
   width="744.09448819"
   height="1052.3622047"
   id="svg2"
   version="1.1"
   inkscape:version="0.48.2 r9819"
   sodipodi:docname="logo.svg"
   inkscape:export-filename="/data2/home/rob/src/dinoteeth/graphics/logo.png"
   inkscape:export-xdpi="14.83"
   inkscape:export-ydpi="14.83">
  <defs
     id="defs4">
    <linearGradient
       id="linearGradient5457">
      <stop
         style="stop-color:#a4a48f;stop-opacity:1;"
         offset="0"
         id="stop5459" />
      <stop
         style="stop-color:#ffffff;stop-opacity:1;"
         offset="1"
         id="stop5461" />
    </linearGradient>
    <linearGradient
       id="linearGradient5305">
      <stop
         style="stop-color:#000000;stop-opacity:1;"
         offset="0"
         id="stop5307" />
      <stop
         style="stop-color:#000000;stop-opacity:0;"
         offset="1"
         id="stop5309" />
    </linearGradient>
    <linearGradient
       inkscape:collect="always"
       xlink:href="#linearGradient5457"
       id="linearGradient5463"
       x1="347.22296"
       y1="512.90625"
       x2="509.29913"
       y2="469.33484"
       gradientUnits="userSpaceOnUse" />
  </defs>
  <sodipodi:namedview
     id="base"
     pagecolor="#ffffff"
     bordercolor="#666666"
     borderopacity="1.0"
     inkscape:pageopacity="0.0"
     inkscape:pageshadow="2"
     inkscape:zoom="1.4"
     inkscape:cx="396.72083"
     inkscape:cy="557.15182"
     inkscape:document-units="px"
     inkscape:current-layer="layer3"
     showgrid="false"
     inkscape:window-width="1467"
     inkscape:window-height="869"
     inkscape:window-x="127"
     inkscape:window-y="64"
     inkscape:window-maximized="0" />
  <metadata
     id="metadata7">
    <rdf:RDF>
      <cc:Work
         rdf:about="">
        <dc:format>image/svg+xml</dc:format>
        <dc:type
           rdf:resource="http://purl.org/dc/dcmitype/StillImage" />
        <dc:title></dc:title>
      </cc:Work>
    </rdf:RDF>
  </metadata>
  <g
     inkscape:groupmode="layer"
     id="layer3"
     inkscape:label="tooth"
     style="display:inline">
    <rect
       style="fill:#787865;fill-opacity:1;fill-rule:nonzero;stroke:#c8c8c8;stroke-width:1;stroke-miterlimit:4;stroke-opacity:1;stroke-dasharray:none"
       id="rect5484"
       width="362.85715"
       height="75"
       x="180"
       y="403.07645"
       ry="0" />
    <path
       style="fill:#9b9b84;fill-opacity:1;fill-rule:nonzero;stroke:#b4b4b4;stroke-width:1px;stroke-linecap:butt;stroke-linejoin:miter;stroke-opacity:1"
       d="M 353.625 340.96875 L 264.03125 340.96875 C 264.03125 340.96875 264.80845 448.74667 274.5625 490.09375 C 284.31655 531.44083 297.75004 561.98366 314.90625 587.4375 C 332.06246 612.89134 351.39606 628.31293 371.0625 642.71875 C 390.72894 657.12457 408.76817 667.0686 430.6875 674.28125 C 452.60683 681.4939 478.14646 683.11734 500.875 684.8125 C 523.29741 686.48483 564.86699 684.88789 566 684.84375 C 556.93879 682.10954 547.579 679.2707 539 676.5625 C 528.75433 673.32816 519.63463 670.31229 513.5625 668.0625 C 501.41825 663.56291 493.18854 660.64136 485.9375 657.625 C 482.31198 656.11682 478.92337 654.60558 475.4375 652.84375 C 471.95163 651.08192 468.3499 649.08803 464.28125 646.65625 C 460.2126 644.22447 456.12191 641.61369 452.0625 638.84375 C 448.00309 636.07381 443.97721 633.13163 440 630.03125 C 436.02279 626.93087 432.1033 623.67311 428.28125 620.25 C 424.4592 616.82689 420.75019 613.23812 417.15625 609.5 C 413.56231 605.76187 410.07231 601.98616 406.71875 598.09375 C 403.36519 594.20134 400.13813 590.19457 397 585.96875 C 393.86187 581.74293 390.82265 577.30086 387.875 572.5625 C 384.92735 567.82414 382.06338 562.80501 379.28125 557.375 C 376.49912 551.94499 373.83187 546.03019 371.3125 539.8125 C 368.79313 533.59481 366.43836 527.07 364.25 520.375 C 362.06164 513.68 360.03909 506.83071 358.25 499.96875 C 356.46091 493.10679 354.88407 486.21855 353.5625 479.5 C 352.24093 472.78145 351.19968 465.89997 350.375 458.9375 C 349.55032 451.97503 348.94808 444.9272 348.53125 437.9375 C 348.11442 430.9478 347.87927 424.01899 347.78125 417.21875 C 347.68323 410.41851 347.712 403.76909 347.84375 397.375 C 347.9755 390.98091 348.55119 383.35961 349.3125 375.53125 C 350.07381 367.70289 351.01954 359.64701 351.96875 352.40625 C 352.81188 345.97468 352.96262 345.43065 353.625 340.96875 z "
       id="path5455" />
    <path
       style="fill:url(#linearGradient5463);fill-opacity:1;fill-rule:nonzero;stroke:#b4b4b4;stroke-width:1px;stroke-linecap:butt;stroke-linejoin:miter;stroke-opacity:1"
       d="M 353.625 340.96875 C 352.96262 345.43065 352.81188 345.97468 351.96875 352.40625 C 351.01954 359.64701 350.07381 367.70289 349.3125 375.53125 C 348.55119 383.35961 347.9755 390.98091 347.84375 397.375 C 347.712 403.76909 347.68323 410.41851 347.78125 417.21875 C 347.87927 424.01899 348.11442 430.9478 348.53125 437.9375 C 348.94808 444.9272 349.55032 451.97503 350.375 458.9375 C 351.19968 465.89997 352.24093 472.78145 353.5625 479.5 C 354.88407 486.21855 356.46091 493.10679 358.25 499.96875 C 360.03909 506.83071 362.06164 513.68 364.25 520.375 C 366.43836 527.07 368.79313 533.59481 371.3125 539.8125 C 373.83187 546.03019 376.49912 551.94499 379.28125 557.375 C 382.06338 562.80501 384.92735 567.82414 387.875 572.5625 C 390.82265 577.30086 393.86187 581.74293 397 585.96875 C 400.13813 590.19457 403.36519 594.20134 406.71875 598.09375 C 410.07231 601.98616 413.56231 605.76187 417.15625 609.5 C 420.75019 613.23812 424.4592 616.82689 428.28125 620.25 C 432.1033 623.67311 436.02279 626.93087 440 630.03125 C 443.97721 633.13163 448.00309 636.07381 452.0625 638.84375 C 456.12191 641.61369 460.2126 644.22447 464.28125 646.65625 C 468.3499 649.08803 471.95163 651.08192 475.4375 652.84375 C 478.92337 654.60558 482.31198 656.11682 485.9375 657.625 C 493.18854 660.64136 501.41825 663.56291 513.5625 668.0625 C 519.63463 670.31229 528.75433 673.32816 539 676.5625 C 547.579 679.2707 556.93879 682.10954 566 684.84375 C 566.01547 684.84315 566.65625 684.8125 566.65625 684.8125 C 566.65625 684.8125 520.24962 647.54695 502.625 627.8125 C 485.00038 608.07805 470.96551 590.41283 460.53125 568.15625 C 450.09699 545.89967 444.22355 522.20758 441.21875 496.21875 C 438.21395 470.22992 440.36581 439.77697 443.875 413.78125 C 447.38419 387.78553 461.40625 340.96875 461.40625 340.96875 L 353.625 340.96875 z "
       id="path3083" />
  </g>
</svg>
